<svg width="20" height="20" viewBox="0 0 20 20" fill="none" xmlns="http://www.w3.org/2000/svg">
<path d="M18.75 8.75H1.25C0.559648 8.75 0 9.30965 0 10C0 10.6904 0.559648 11.25 1.25 11.25H18.75C19.4404 11.25 20 10.6904 20 10C20 9.30965 19.4404 8.75 18.75 8.75Z" fill="#ADB8CC"/>
<path d="M1.25 5.41663H18.75C19.4404 5.41663 20 4.85698 20 4.16663C20 3.47627 19.4404 2.91663 18.75 2.91663H1.25C0.559648 2.91663 0 3.47627 0 4.16663C0 4.85698 0.559648 5.41663 1.25 5.41663Z" fill="#ADB8CC"/>
<path d="M18.75 14.5833H1.25C0.559648 14.5833 0 15.1429 0 15.8333C0 16.5236 0.559648 17.0833 1.25 17.0833H18.75C19.4404 17.0833 20 16.5236 20 15.8333C20 15.1429 19.4404 14.5833 18.75 14.5833Z" fill="#ADB8CC"/>
</svg>
