<svg width="20" height="20" viewBox="0 0 20 20" fill="none" xmlns="http://www.w3.org/2000/svg">
<g clip-path="url(#clip0_1_2878)">
<path d="M7.49996 11.6667H12.5C12.721 11.6667 12.9329 11.5789 13.0892 11.4226C13.2455 11.2663 13.3333 11.0543 13.3333 10.8333C13.3333 10.6123 13.2455 10.4004 13.0892 10.2441C12.9329 10.0878 12.721 10 12.5 10H7.49996C7.27895 10 7.06698 10.0878 6.9107 10.2441C6.75442 10.4004 6.66663 10.6123 6.66663 10.8333C6.66663 11.0543 6.75442 11.2663 6.9107 11.4226C7.06698 11.5789 7.27895 11.6667 7.49996 11.6667Z" fill="#ADB8CC"/>
<path d="M15.5871 0.5H4.50374C3.45431 0.501257 2.44823 0.918698 1.70617 1.66076C0.964108 2.40282 0.546667 3.4089 0.54541 4.45833L0.54541 5.25C0.54564 5.58388 0.616265 5.91396 0.752676 6.2187C0.889086 6.52344 1.08822 6.796 1.33708 7.01858V15.5417C1.33833 16.5911 1.75578 17.5972 2.49783 18.3392C3.23989 19.0813 4.24598 19.4987 5.29541 19.5H14.7954C15.8448 19.4987 16.8509 19.0813 17.593 18.3392C18.335 17.5972 18.7525 16.5911 18.7537 15.5417V7.01858C19.0026 6.796 19.2017 6.52344 19.3381 6.2187C19.4746 5.91396 19.5452 5.58388 19.5454 5.25V4.45833C19.5442 3.4089 19.1267 2.40282 18.3847 1.66076C17.6426 0.918698 16.6365 0.501257 15.5871 0.5ZM2.12874 4.45833C2.12874 3.82844 2.37897 3.22435 2.82436 2.77895C3.26976 2.33356 3.87385 2.08333 4.50374 2.08333H15.5871C16.217 2.08333 16.8211 2.33356 17.2665 2.77895C17.7119 3.22435 17.9621 3.82844 17.9621 4.45833V5.25C17.9621 5.45996 17.8787 5.66133 17.7302 5.80979C17.5817 5.95826 17.3804 6.04167 17.1704 6.04167H2.92041C2.71045 6.04167 2.50908 5.95826 2.36062 5.80979C2.21215 5.66133 2.12874 5.45996 2.12874 5.25V4.45833ZM17.1704 15.5417C17.1704 16.1716 16.9202 16.7756 16.4748 17.221C16.0294 17.6664 15.4253 17.9167 14.7954 17.9167H5.29541C4.66552 17.9167 4.06143 17.6664 3.61603 17.221C3.17063 16.7756 2.92041 16.1716 2.92041 15.5417V7.625H17.1704V15.5417Z" fill="#ADB8CC"/>
</g>
<defs>
<clipPath id="clip0_1_2878">
<rect width="20" height="20" fill="white"/>
</clipPath>
</defs>
</svg>
