<svg width="20" height="20" viewBox="0 0 20 20" fill="none" xmlns="http://www.w3.org/2000/svg">
<g clip-path="url(#clip0_26_3361)">
<path d="M10 0C4.48583 0 0 4.48583 0 10C0 15.5142 4.48583 20 10 20C15.5142 20 20 15.5142 20 10C20 4.48583 15.5142 0 10 0ZM6.66667 17.6367V15.8333C6.66667 15.3733 7.04083 15 7.5 15H12.5C12.9592 15 13.3333 15.3733 13.3333 15.8333V17.6367C12.3117 18.0842 11.185 18.3333 10 18.3333C8.815 18.3333 7.68833 18.0842 6.66667 17.6367ZM15 16.6625V15.8333C15 14.455 13.8783 13.3333 12.5 13.3333H7.5C6.12167 13.3333 5 14.455 5 15.8333V16.6625C2.9775 15.1408 1.66667 12.7208 1.66667 10C1.66667 5.405 5.405 1.66667 10 1.66667C14.595 1.66667 18.3333 5.405 18.3333 10C18.3333 12.72 17.0225 15.1408 15 16.6625ZM10 5C8.16167 5 6.66667 6.495 6.66667 8.33333C6.66667 10.1717 8.16167 11.6667 10 11.6667C11.8383 11.6667 13.3333 10.1717 13.3333 8.33333C13.3333 6.495 11.8383 5 10 5ZM10 10C9.08083 10 8.33333 9.2525 8.33333 8.33333C8.33333 7.41417 9.08083 6.66667 10 6.66667C10.9192 6.66667 11.6667 7.41417 11.6667 8.33333C11.6667 9.2525 10.9192 10 10 10Z" fill="#ADB8CC"/>
</g>
<defs>
<clipPath id="clip0_26_3361">
<rect width="20" height="20" fill="white"/>
</clipPath>
</defs>
</svg>
