<svg width="21" height="20" viewBox="0 0 21 20" fill="none" xmlns="http://www.w3.org/2000/svg">
<g clip-path="url(#clip0_2044_53)">
<path d="M16.3792 0H11.3792C9.08173 0 7.21256 1.86917 7.21256 4.16667V9.16667C7.21256 11.4642 9.08173 13.3333 11.3792 13.3333H16.3792C18.6767 13.3333 20.5459 11.4642 20.5459 9.16667V4.16667C20.5459 1.86917 18.6767 0 16.3792 0ZM18.8792 9.16667C18.8792 10.545 17.7576 11.6667 16.3792 11.6667H11.3792C10.0009 11.6667 8.87923 10.545 8.87923 9.16667V4.16667C8.87923 2.78833 10.0009 1.66667 11.3792 1.66667H16.3792C17.7576 1.66667 18.8792 2.78833 18.8792 4.16667V9.16667ZM13.8792 15.8333C13.8792 18.1308 12.0101 20 9.71256 20H4.71256C2.41507 20 0.545898 18.1308 0.545898 15.8333V10.8333C0.545898 8.53583 2.41507 6.66667 4.71256 6.66667C5.1734 6.66667 5.5459 7.04 5.5459 7.5C5.5459 7.96 5.1734 8.33333 4.71256 8.33333C3.33423 8.33333 2.21257 9.455 2.21257 10.8333V15.8333C2.21257 17.2117 3.33423 18.3333 4.71256 18.3333H9.71256C11.0909 18.3333 12.2126 17.2117 12.2126 15.8333C12.2126 15.3733 12.5851 15 13.0459 15C13.5067 15 13.8792 15.3733 13.8792 15.8333Z" fill="#ADB8CC"/>
</g>
<defs>
<clipPath id="clip0_2044_53">
<rect width="20" height="20" fill="white" transform="translate(0.545898)"/>
</clipPath>
</defs>
</svg>
