<svg width="20" height="20" viewBox="0 0 20 20" fill="none" xmlns="http://www.w3.org/2000/svg">
<g clip-path="url(#clip0_28_4034)">
<path d="M15.5283 18.3333H17.5C17.9608 18.3333 18.3333 18.7058 18.3333 19.1667C18.3333 19.6275 17.9608 20 17.5 20H14.1667C13.2458 20 12.5 19.2542 12.5 18.3333V15C12.5 14.5392 12.8725 14.1667 13.3333 14.1667C13.7942 14.1667 14.1667 14.5392 14.1667 15V17.2125C16.4992 15.8642 18.0942 13.4475 18.3367 10.7592C18.3783 10.3008 18.7892 9.9625 19.2417 10.0042C19.7 10.0458 20.0383 10.4508 19.9967 10.9092C19.7242 13.9308 18.0342 16.6692 15.5283 18.3333ZM0.00333333 9.09167C-0.0375 9.55 0.375833 9.95833 0.834167 10C1.26083 10 1.62417 9.67417 1.66333 9.24167C1.90583 6.5525 3.50167 4.13583 5.83333 2.7875V5C5.83333 5.46083 6.20667 5.83333 6.66667 5.83333C7.12667 5.83333 7.5 5.46083 7.5 5V1.66667C7.5 0.745833 6.75417 0 5.83333 0H2.5C2.04 0 1.66667 0.3725 1.66667 0.833333C1.66667 1.29417 2.04 1.66667 2.5 1.66667H4.47167C1.96583 3.33083 0.275833 6.07 0.00333333 9.09167ZM8.33333 14.1667V17.5C8.33333 18.8783 7.21167 20 5.83333 20H2.5C1.12167 20 0 18.8783 0 17.5V14.1667C0 12.7883 1.12167 11.6667 2.5 11.6667H5.83333C7.21167 11.6667 8.33333 12.7883 8.33333 14.1667ZM6.66667 14.1667C6.66667 13.7067 6.2925 13.3333 5.83333 13.3333H2.5C2.04083 13.3333 1.66667 13.7067 1.66667 14.1667V17.5C1.66667 17.96 2.04083 18.3333 2.5 18.3333H5.83333C6.2925 18.3333 6.66667 17.96 6.66667 17.5V14.1667ZM15.4167 9.16667C12.89 9.16667 10.8333 7.11 10.8333 4.58333C10.8333 2.05667 12.89 0 15.4167 0C17.9433 0 20 2.05667 20 4.58333C20 7.11 17.9433 9.16667 15.4167 9.16667ZM15.4167 7.5C17.025 7.5 18.3333 6.19167 18.3333 4.58333C18.3333 2.975 17.025 1.66667 15.4167 1.66667C13.8083 1.66667 12.5 2.975 12.5 4.58333C12.5 6.19167 13.8083 7.5 15.4167 7.5Z" fill="white"/>
</g>
<defs>
<clipPath id="clip0_28_4034">
<rect width="20" height="20" fill="white"/>
</clipPath>
</defs>
</svg>
