<svg width="20" height="20" viewBox="0 0 20 20" fill="none" xmlns="http://www.w3.org/2000/svg">
<path d="M15.8333 1.75H4.16667C3.062 1.75119 2.00296 2.14666 1.22185 2.84966C0.440735 3.55267 0.00132321 4.5058 0 5.5L0 14.5C0.00132321 15.4942 0.440735 16.4473 1.22185 17.1503C2.00296 17.8533 3.062 18.2488 4.16667 18.25H15.8333C16.938 18.2488 17.997 17.8533 18.7782 17.1503C19.5593 16.4473 19.9987 15.4942 20 14.5V5.5C19.9987 4.5058 19.5593 3.55267 18.7782 2.84966C17.997 2.14666 16.938 1.75119 15.8333 1.75ZM4.16667 3.25H15.8333C16.3323 3.25088 16.8196 3.38614 17.2325 3.63835C17.6453 3.89057 17.9649 4.24821 18.15 4.66525L11.7683 10.4095C11.2987 10.8305 10.6628 11.0669 10 11.0669C9.33715 11.0669 8.70131 10.8305 8.23167 10.4095L1.85 4.66525C2.03512 4.24821 2.35468 3.89057 2.76754 3.63835C3.1804 3.38614 3.66768 3.25088 4.16667 3.25ZM15.8333 16.75H4.16667C3.50363 16.75 2.86774 16.5129 2.3989 16.091C1.93006 15.669 1.66667 15.0967 1.66667 14.5V6.625L7.05333 11.47C7.83552 12.1722 8.89521 12.5665 10 12.5665C11.1048 12.5665 12.1645 12.1722 12.9467 11.47L18.3333 6.625V14.5C18.3333 15.0967 18.0699 15.669 17.6011 16.091C17.1323 16.5129 16.4964 16.75 15.8333 16.75Z" fill="#ADB8CC"/>
</svg>
