<svg width="20" height="20" viewBox="0 0 20 20" fill="none" xmlns="http://www.w3.org/2000/svg">
<path d="M9.99973 0C4.36738 0 0 4.12739 0 9.69973C0 12.6147 1.19497 15.1346 3.13991 16.8745C3.30241 17.0195 3.40241 17.2245 3.40741 17.4445L3.46241 19.2245C3.46641 19.3554 3.50252 19.4834 3.56757 19.5972C3.63262 19.7109 3.7246 19.8069 3.83545 19.8768C3.9463 19.9467 4.07261 19.9882 4.20328 19.9978C4.33396 20.0075 4.46499 19.9848 4.58487 19.932L6.56982 19.057C6.73732 18.982 6.92731 18.9695 7.10481 19.017C8.01728 19.267 8.98725 19.402 9.99973 19.402C15.6321 19.402 19.9995 15.2746 19.9995 9.70223C19.9995 4.12989 15.6321 0 9.99973 0Z" fill="url(#paint0_radial_2001_384)"/>
<path d="M9.99973 0C4.36738 0 0 4.12739 0 9.69973C0 12.6147 1.19497 15.1346 3.13991 16.8745C3.30241 17.0195 3.40241 17.2245 3.40741 17.4445L3.46241 19.2245C3.46641 19.3554 3.50252 19.4834 3.56757 19.5972C3.63262 19.7109 3.7246 19.8069 3.83545 19.8768C3.9463 19.9467 4.07261 19.9882 4.20328 19.9978C4.33396 20.0075 4.46499 19.9848 4.58487 19.932L6.56982 19.057C6.73732 18.982 6.92731 18.9695 7.10481 19.017C8.01728 19.267 8.98725 19.402 9.99973 19.402C15.6321 19.402 19.9995 15.2746 19.9995 9.70223C19.9995 4.12989 15.6321 0 9.99973 0Z" fill="#2E6CE6"/>
<path d="M3.99501 12.5372L6.93243 7.87734C7.04293 7.7019 7.1886 7.55128 7.36025 7.43497C7.5319 7.31867 7.7258 7.23922 7.92971 7.20163C8.13361 7.16405 8.3431 7.16914 8.54493 7.2166C8.74677 7.26406 8.93657 7.35284 9.10237 7.47735L11.4398 9.22981C11.5442 9.30793 11.6711 9.34994 11.8015 9.34949C11.9318 9.34904 12.0585 9.30615 12.1623 9.22731L15.3172 6.83237C15.7372 6.51238 16.2872 7.01737 16.0072 7.46485L13.0673 12.1222C12.9568 12.2977 12.8111 12.4483 12.6394 12.5646C12.4678 12.6809 12.2739 12.7604 12.07 12.7979C11.8661 12.8355 11.6566 12.8304 11.4548 12.783C11.2529 12.7355 11.0631 12.6467 10.8973 12.5222L8.55988 10.7698C8.45553 10.6916 8.32858 10.6496 8.19822 10.6501C8.06787 10.6505 7.94121 10.6934 7.8374 10.7723L4.68249 13.1672C4.2625 13.4872 3.71252 12.9847 3.99501 12.5372Z" fill="white"/>
<defs>
<radialGradient id="paint0_radial_2001_384" cx="0" cy="0" r="1" gradientUnits="userSpaceOnUse" gradientTransform="translate(3.34991 19.9995) scale(21.9994)">
<stop stop-color="#0099FF"/>
<stop offset="0.6" stop-color="#A033FF"/>
<stop offset="0.9" stop-color="#FF5280"/>
<stop offset="1" stop-color="#FF7061"/>
</radialGradient>
</defs>
</svg>
