<svg width="20" height="20" viewBox="0 0 20 20" fill="none" xmlns="http://www.w3.org/2000/svg">
<g clip-path="url(#clip0_1_2865)">
<path d="M18.1273 2.40495C15.6347 -0.0877832 11.5786 -0.0877832 9.08556 2.40495L1.33525 10.1552C-0.445181 11.9359 -0.445064 14.8331 1.33548 16.6136C2.22584 17.5039 3.39498 17.9491 4.56459 17.949C5.73388 17.9489 6.90365 17.5038 7.79384 16.6136L14.8981 9.50917C15.4156 8.99167 15.7007 8.30358 15.7008 7.57171C15.7008 6.8398 15.4158 6.15175 14.8982 5.63409C13.8297 4.56577 12.0913 4.56581 11.0231 5.63429L6.3772 10.2801C6.02052 10.6367 6.02052 11.215 6.37712 11.5717C6.73377 11.9285 7.31209 11.9284 7.6688 11.5717L12.3147 6.92593C12.6709 6.5698 13.2503 6.56972 13.6064 6.92585C13.7789 7.09835 13.874 7.32772 13.874 7.57167C13.874 7.81562 13.779 8.04491 13.6064 8.21749L6.50216 15.3219C5.43376 16.3901 3.69548 16.3903 2.62716 15.3219C1.55884 14.2535 1.55876 12.5152 2.62697 11.4468L10.3772 3.69663C12.1579 1.91601 15.0552 1.91601 16.8356 3.69663C17.6982 4.55913 18.1733 5.70597 18.1733 6.92577C18.1733 8.14558 17.6982 9.29241 16.8356 10.155L9.08545 17.9054C8.7288 18.2621 8.7288 18.8403 9.08552 19.1971C9.26388 19.3755 9.49763 19.4646 9.73134 19.4646C9.96509 19.4646 10.1988 19.3753 10.3772 19.1971L18.1272 11.4467C19.3349 10.2392 19.9999 8.63362 20 6.92581C20 5.21804 19.3349 3.61249 18.1273 2.40495Z" fill="#C3CAD9"/>
</g>
<defs>
<clipPath id="clip0_1_2865">
<rect width="20" height="20" fill="white"/>
</clipPath>
</defs>
</svg>
