<svg width="20" height="20" viewBox="0 0 20 20" fill="none" xmlns="http://www.w3.org/2000/svg">
<g clip-path="url(#clip0_1_2881)">
<path d="M15.8333 6.66667V5.83333C15.8333 4.28624 15.2187 2.80251 14.1247 1.70854C13.0308 0.614582 11.5471 0 9.99996 0C8.45286 0 6.96913 0.614582 5.87517 1.70854C4.78121 2.80251 4.16663 4.28624 4.16663 5.83333V6.66667H1.66663V17.5C1.66663 18.163 1.93002 18.7989 2.39886 19.2678C2.8677 19.7366 3.50358 20 4.16663 20H15.8333C16.4963 20 17.1322 19.7366 17.6011 19.2678C18.0699 18.7989 18.3333 18.163 18.3333 17.5V6.66667H15.8333ZM5.83329 5.83333C5.83329 4.72826 6.27228 3.66846 7.05368 2.88705C7.83508 2.10565 8.89489 1.66667 9.99996 1.66667C11.105 1.66667 12.1648 2.10565 12.9462 2.88705C13.7276 3.66846 14.1666 4.72826 14.1666 5.83333V6.66667H5.83329V5.83333ZM16.6666 17.5C16.6666 17.721 16.5788 17.933 16.4225 18.0893C16.2663 18.2455 16.0543 18.3333 15.8333 18.3333H4.16663C3.94561 18.3333 3.73365 18.2455 3.57737 18.0893C3.42109 17.933 3.33329 17.721 3.33329 17.5V8.33333H16.6666V17.5Z" fill="#ADB8CC"/>
<path d="M10.8333 11.6667H9.16663V15H10.8333V11.6667Z" fill="#ADB8CC"/>
</g>
<defs>
<clipPath id="clip0_1_2881">
<rect width="20" height="20" fill="white"/>
</clipPath>
</defs>
</svg>
