<svg width="20" height="20" viewBox="0 0 20 20" fill="none" xmlns="http://www.w3.org/2000/svg">
<g clip-path="url(#clip0_26_3430)">
<path d="M10.0001 5C9.34081 5 8.69635 5.1955 8.14818 5.56177C7.60002 5.92804 7.17278 6.44863 6.92048 7.05772C6.66819 7.66681 6.60218 8.33703 6.7308 8.98363C6.85942 9.63024 7.17689 10.2242 7.64306 10.6904C8.10924 11.1565 8.70318 11.474 9.34978 11.6026C9.99639 11.7312 10.6666 11.6652 11.2757 11.4129C11.8848 11.1606 12.4054 10.7334 12.7716 10.1852C13.1379 9.63707 13.3334 8.9926 13.3334 8.33333C13.3334 7.44928 12.9822 6.60143 12.3571 5.97631C11.732 5.35119 10.8841 5 10.0001 5ZM10.0001 10C9.67045 10 9.34822 9.90225 9.07413 9.71912C8.80005 9.53598 8.58643 9.27568 8.46028 8.97114C8.33414 8.6666 8.30113 8.33148 8.36544 8.00818C8.42975 7.68488 8.58848 7.38791 8.82157 7.15482C9.05466 6.92173 9.35163 6.763 9.67493 6.69869C9.99823 6.63438 10.3333 6.66739 10.6379 6.79353C10.9424 6.91968 11.2027 7.1333 11.3859 7.40738C11.569 7.68147 11.6668 8.0037 11.6668 8.33333C11.6668 8.77536 11.4912 9.19928 11.1786 9.51184C10.866 9.82441 10.4421 10 10.0001 10Z" fill="#ADB8CC"/>
<path d="M10.0001 20C9.29843 20.0036 8.60606 19.839 7.98103 19.5201C7.35599 19.2011 6.81647 18.737 6.40764 18.1667C3.2318 13.7859 1.62097 10.4925 1.62097 8.37752C1.62097 6.15523 2.50377 4.02395 4.07517 2.45255C5.64657 0.881155 7.77785 -0.00164795 10.0001 -0.00164795C12.2224 -0.00164795 14.3537 0.881155 15.9251 2.45255C17.4965 4.02395 18.3793 6.15523 18.3793 8.37752C18.3793 10.4925 16.7685 13.7859 13.5926 18.1667C13.1838 18.737 12.6443 19.2011 12.0193 19.5201C11.3942 19.839 10.7019 20.0036 10.0001 20ZM10.0001 1.81752C8.26049 1.8195 6.59265 2.51146 5.36253 3.74158C4.13241 4.9717 3.44046 6.63953 3.43847 8.37919C3.43847 10.0542 5.01597 13.1517 7.8793 17.1009C8.12238 17.4357 8.44128 17.7082 8.8099 17.8961C9.17852 18.084 9.58639 18.1819 10.0001 18.1819C10.4139 18.1819 10.8218 18.084 11.1904 17.8961C11.559 17.7082 11.8779 17.4357 12.121 17.1009C14.9843 13.1517 16.5618 10.0542 16.5618 8.37919C16.5598 6.63953 15.8679 4.9717 14.6377 3.74158C13.4076 2.51146 11.7398 1.8195 10.0001 1.81752Z" fill="#ADB8CC"/>
</g>
<defs>
<clipPath id="clip0_26_3430">
<rect width="20" height="20" fill="white"/>
</clipPath>
</defs>
</svg>
