<svg width="20" height="21" viewBox="0 0 20 21" fill="none" xmlns="http://www.w3.org/2000/svg">
<path d="M3.01138 5.15165L15.3857 17.526C15.8739 18.0142 16.6654 18.0142 17.1535 17.526C17.6417 17.0379 17.6417 16.2464 17.1535 15.7583L4.77915 3.38388C4.29099 2.89573 3.49953 2.89573 3.01138 3.38388C2.52323 3.87204 2.52323 4.6635 3.01138 5.15165Z" fill="#ADB8CC"/>
<path d="M15.2583 3.38384L2.88388 15.7582C2.39573 16.2464 2.39573 17.0378 2.88388 17.526C3.37204 18.0141 4.1635 18.0141 4.65165 17.526L17.026 5.1516C17.5142 4.66345 17.5142 3.87199 17.026 3.38384C16.5379 2.89569 15.7464 2.89569 15.2583 3.38384Z" fill="#ADB8CC"/>
</svg>
