<svg width="20" height="20" viewBox="0 0 20 20" fill="none" xmlns="http://www.w3.org/2000/svg">
<g clip-path="url(#clip0_2001_1090)">
<path d="M10 20C15.5228 20 20 15.5228 20 10C20 4.47715 15.5228 0 10 0C4.47715 0 0 4.47715 0 10C0 15.5228 4.47715 20 10 20Z" fill="#09B83E"/>
<path fill-rule="evenodd" clip-rule="evenodd" d="M15.8594 11.5565C15.8594 9.88654 14.2793 8.53302 12.3301 8.53302C10.3809 8.53302 8.79883 9.88263 8.79883 11.5565C8.79883 13.2205 10.3789 14.5721 12.3301 14.5799C12.7324 14.574 13.1211 14.5135 13.4883 14.4041C13.5156 14.3963 13.5117 14.3983 13.584 14.3826C13.6543 14.369 13.7168 14.4041 13.7695 14.4334L14.5312 14.8963C14.5684 14.9158 14.5879 14.9256 14.6152 14.9256C14.6777 14.9256 14.7305 14.8729 14.7266 14.8104C14.7285 14.7752 14.7168 14.7479 14.709 14.7205C14.7012 14.6912 14.6074 14.3377 14.5566 14.1151C14.5508 14.0838 14.5469 14.0662 14.5469 14.0057C14.5469 13.9451 14.5762 13.8826 14.6426 13.824C15.3828 13.283 15.8594 12.4647 15.8594 11.5565ZM11.1289 11.033C10.8926 11.033 10.6895 10.824 10.6895 10.5545C10.6895 10.3104 10.8926 10.1033 11.1289 10.1033C11.3906 10.1033 11.5937 10.3123 11.5937 10.5545C11.5957 10.826 11.3926 11.033 11.1289 11.033ZM13.4727 11.033C13.2363 11.033 13.0332 10.824 13.0332 10.5545C13.0332 10.3104 13.2363 10.1033 13.4727 10.1033C13.7344 10.1033 13.9375 10.3123 13.9375 10.5545C13.9375 10.826 13.7363 11.033 13.4727 11.033Z" fill="white"/>
<path fill-rule="evenodd" clip-rule="evenodd" d="M12.3301 8.24408C12.4043 8.24213 12.4805 8.24408 12.5566 8.24408C12.2383 6.51556 10.4863 5.1933 8.37695 5.1933C6.03516 5.19525 4.13867 6.81635 4.13867 8.82611C4.13867 9.90814 4.70898 10.8906 5.60742 11.5585C5.67383 11.6074 5.70898 11.666 5.70898 11.7617C5.70898 11.7949 5.70312 11.83 5.69336 11.8769C5.61914 12.1933 5.53516 12.5546 5.52344 12.6035C5.51172 12.6523 5.49414 12.6835 5.49609 12.7187C5.49414 12.7988 5.55664 12.8632 5.63672 12.8632C5.66406 12.8632 5.69141 12.8515 5.7207 12.8339L6.65234 12.2812C6.71094 12.2441 6.77734 12.2265 6.82227 12.2265C6.86914 12.2265 6.94336 12.2402 6.99023 12.2538C7.42383 12.3671 7.88867 12.4394 8.375 12.4296C8.45117 12.4394 8.5293 12.4374 8.60156 12.4296C8.51367 12.1523 8.46289 11.8554 8.46094 11.5566C8.4668 9.71869 10.1934 8.24017 12.3301 8.24408ZM9.75977 7.08197C10.0723 7.08197 10.3242 7.34174 10.3242 7.664C10.3223 7.98627 10.0703 8.24603 9.75977 8.24603C9.44727 8.24603 9.19531 7.98627 9.19531 7.664C9.19531 7.34174 9.44727 7.08197 9.75977 7.08197ZM6.93555 8.24408C6.62305 8.24408 6.37109 7.98431 6.37109 7.66205C6.37109 7.33978 6.62305 7.08002 6.93555 7.08002C7.24805 7.08002 7.5 7.33978 7.5 7.66205C7.5 7.98431 7.24805 8.24408 6.93555 8.24408Z" fill="white"/>
</g>
<defs>
<clipPath id="clip0_2001_1090">
<rect width="20" height="20" fill="white"/>
</clipPath>
</defs>
</svg>
