<svg width="20" height="20" viewBox="0 0 20 20" fill="none" xmlns="http://www.w3.org/2000/svg">
<g clip-path="url(#clip0_26_3597)">
<path d="M18.8833 0.649978C17.6917 -0.325022 15.875 -0.191688 14.7333 0.949978L13.575 2.10831L12.975 1.50831C12 0.533312 10.4167 0.533312 9.44166 1.50831L5.39166 5.55831L6.56666 6.73331L10.6167 2.69164C10.9417 2.36665 11.4667 2.36665 11.7917 2.69164L12.3917 3.29165L2.85833 12.825C1.95833 13.725 1.61666 16.175 1.50833 17.2833L0.0333252 18.7583L1.20833 19.9333L2.68333 18.4583C3.79166 18.35 6.24166 18.0166 7.14166 17.1083L19.1083 5.14998C19.7167 4.54164 20.0333 3.70831 19.9917 2.84998C19.95 1.99998 19.5417 1.19165 18.875 0.649978H18.8833ZM5.96666 15.9333C5.66666 16.2333 4.47499 16.5333 3.25833 16.7083C3.43333 15.4916 3.73333 14.3 4.03333 14L13.575 4.46665L15.5083 6.39998L5.96666 15.9333ZM17.9333 3.96665L16.6833 5.21665L14.75 3.28331L15.9083 2.12498C16.2167 1.81664 16.6167 1.65831 17.0083 1.65831C17.3083 1.65831 17.5917 1.74998 17.825 1.94164C18.1333 2.19164 18.3083 2.54165 18.3333 2.93331C18.35 3.31664 18.2083 3.69998 17.9333 3.96665Z" fill="#ADB8CC"/>
</g>
<defs>
<clipPath id="clip0_26_3597">
<rect width="20" height="20" fill="white"/>
</clipPath>
</defs>
</svg>
