<svg width="20" height="20" viewBox="0 0 20 20" fill="none" xmlns="http://www.w3.org/2000/svg">
<g clip-path="url(#clip0_26_3422)">
<path d="M10.8332 0.83326C10.8332 0.612247 10.921 0.400285 11.0773 0.244005C11.2336 0.0877244 11.4456 -7.30021e-05 11.6666 -7.30021e-05C13.876 0.00235333 15.9942 0.881106 17.5564 2.44338C19.1187 4.00566 19.9975 6.12387 19.9999 8.33326C19.9999 8.55427 19.9121 8.76624 19.7558 8.92252C19.5996 9.0788 19.3876 9.16659 19.1666 9.16659C18.9456 9.16659 18.7336 9.0788 18.5773 8.92252C18.421 8.76624 18.3332 8.55427 18.3332 8.33326C18.3313 6.56576 17.6282 4.87122 16.3784 3.62141C15.1286 2.3716 13.4341 1.66858 11.6666 1.66659C11.4456 1.66659 11.2336 1.5788 11.0773 1.42252C10.921 1.26624 10.8332 1.05427 10.8332 0.83326ZM11.6666 4.99993C12.5506 4.99993 13.3985 5.35112 14.0236 5.97624C14.6487 6.60136 14.9999 7.44921 14.9999 8.33326C14.9999 8.55427 15.0877 8.76624 15.244 8.92252C15.4003 9.0788 15.6122 9.16659 15.8332 9.16659C16.0543 9.16659 16.2662 9.0788 16.4225 8.92252C16.5788 8.76624 16.6666 8.55427 16.6666 8.33326C16.6652 7.00758 16.138 5.73658 15.2006 4.79919C14.2633 3.86179 12.9923 3.33458 11.6666 3.33326C11.4456 3.33326 11.2336 3.42106 11.0773 3.57734C10.921 3.73362 10.8332 3.94558 10.8332 4.16659C10.8332 4.38761 10.921 4.59957 11.0773 4.75585C11.2336 4.91213 11.4456 4.99993 11.6666 4.99993ZM19.2441 13.9491C19.727 14.4334 19.9982 15.0894 19.9982 15.7733C19.9982 16.4572 19.727 17.1132 19.2441 17.5974L18.4857 18.4716C11.6607 25.0058 -4.94759 8.40159 1.48574 1.55493L2.44407 0.721594C2.92888 0.252158 3.57902 -0.0075321 4.25383 -0.00129397C4.92864 0.00494417 5.57386 0.276609 6.04991 0.754927C6.07574 0.78076 7.61991 2.78659 7.61991 2.78659C8.0781 3.26795 8.33316 3.90737 8.33207 4.57193C8.33099 5.23649 8.07384 5.87507 7.61407 6.35493L6.64907 7.56826C7.18311 8.86585 7.96829 10.0451 8.9595 11.0383C9.9507 12.0315 11.1284 12.8191 12.4249 13.3558L13.6457 12.3849C14.1257 11.9255 14.7641 11.6687 15.4285 11.6677C16.0928 11.6668 16.732 11.9219 17.2132 12.3799C17.2132 12.3799 19.2182 13.9233 19.2441 13.9491ZM18.0974 15.1608C18.0974 15.1608 16.1032 13.6266 16.0774 13.6008C15.9057 13.4305 15.6738 13.335 15.432 13.335C15.1902 13.335 14.9583 13.4305 14.7866 13.6008C14.7641 13.6241 13.0832 14.9633 13.0832 14.9633C12.97 15.0534 12.8352 15.1125 12.6921 15.1347C12.5491 15.1569 12.4027 15.1415 12.2674 15.0899C10.5878 14.4646 9.06219 13.4855 7.79394 12.2192C6.52568 10.9528 5.54441 9.42862 4.91657 7.74993C4.86091 7.61281 4.84276 7.46333 4.86399 7.31688C4.88523 7.17042 4.94509 7.03226 5.03741 6.91659C5.03741 6.91659 6.37657 5.23493 6.39907 5.21326C6.5693 5.04158 6.66481 4.80961 6.66481 4.56784C6.66481 4.32608 6.5693 4.09411 6.39907 3.92243C6.37324 3.89743 4.83907 1.90159 4.83907 1.90159C4.66482 1.74535 4.43741 1.66167 4.20345 1.66772C3.96948 1.67376 3.74669 1.76906 3.58074 1.93409L2.62241 2.76743C-2.07926 8.42076 12.3132 22.0149 17.2674 17.3333L18.0266 16.4583C18.2045 16.2935 18.3113 16.066 18.3245 15.8238C18.3378 15.5817 18.2563 15.3439 18.0974 15.1608Z" fill="#ADB8CC"/>
</g>
<defs>
<clipPath id="clip0_26_3422">
<rect width="20" height="20" fill="white"/>
</clipPath>
</defs>
</svg>
