<svg width="25" height="19" viewBox="0 0 25 19" fill="none" xmlns="http://www.w3.org/2000/svg">
<g clip-path="url(#clip0_1_2843)">
<path d="M22.9263 7.07143H22.4471V6.11905C22.4471 3.49333 20.2976 1.35714 17.6554 1.35714H13.8221V-0.547619C13.8221 -1.07429 13.3928 -1.5 12.8638 -1.5C12.3348 -1.5 11.9054 -1.07429 11.9054 -0.547619V1.35714H8.0721C5.42998 1.35714 3.28044 3.49333 3.28044 6.11905V7.07143H2.80127C2.00873 7.07143 1.36377 7.71238 1.36377 8.5V11.3571C1.36377 12.1448 2.00873 12.7857 2.80127 12.7857H3.28044V13.7381C3.28044 16.3638 5.42998 18.5 8.0721 18.5H17.6554C20.2976 18.5 22.4471 16.3638 22.4471 13.7381V12.7857H22.9263C23.7188 12.7857 24.3638 12.1448 24.3638 11.3571V8.5C24.3638 7.71238 23.7188 7.07143 22.9263 7.07143ZM20.5304 13.7381C20.5304 15.3133 19.2405 16.5952 17.6554 16.5952H8.0721C6.48702 16.5952 5.1971 15.3133 5.1971 13.7381V6.11905C5.1971 4.54381 6.48702 3.2619 8.0721 3.2619H17.6554C19.2405 3.2619 20.5304 4.54381 20.5304 6.11905V13.7381ZM10.9471 7.54762C10.9471 8.33619 10.3031 8.97619 9.5096 8.97619C8.7161 8.97619 8.0721 8.33619 8.0721 7.54762C8.0721 6.75905 8.7161 6.11905 9.5096 6.11905C10.3031 6.11905 10.9471 6.75905 10.9471 7.54762ZM16.2179 8.97619C15.4244 8.97619 14.7804 8.33619 14.7804 7.54762C14.7804 6.75905 15.4244 6.11905 16.2179 6.11905C17.0114 6.11905 17.6554 6.75905 17.6554 7.54762C17.6554 8.33619 17.0114 8.97619 16.2179 8.97619ZM9.98877 12.7857C9.98877 13.3124 9.55944 13.7381 9.03044 13.7381H8.0721C7.5431 13.7381 7.11377 13.3124 7.11377 12.7857C7.11377 12.259 7.5431 11.8333 8.0721 11.8333H9.03044C9.55944 11.8333 9.98877 12.259 9.98877 12.7857ZM14.7804 12.7857C14.7804 13.3124 14.3521 13.7381 13.8221 13.7381H11.9054C11.3764 13.7381 10.9471 13.3124 10.9471 12.7857C10.9471 12.259 11.3764 11.8333 11.9054 11.8333H13.8221C14.3521 11.8333 14.7804 12.259 14.7804 12.7857ZM18.6138 12.7857C18.6138 13.3124 18.1854 13.7381 17.6554 13.7381H16.6971C16.1671 13.7381 15.7388 13.3124 15.7388 12.7857C15.7388 12.259 16.1671 11.8333 16.6971 11.8333H17.6554C18.1854 11.8333 18.6138 12.259 18.6138 12.7857Z" fill="white"/>
</g>
<defs>
<clipPath id="clip0_1_2843">
<rect width="25" height="19" fill="white"/>
</clipPath>
</defs>
</svg>
