<svg width="20" height="20" viewBox="0 0 20 20" fill="none" xmlns="http://www.w3.org/2000/svg">
<g clip-path="url(#clip0_1_1384)">
<path d="M19.6342 17.871L15.7633 13.9984C18.6597 10.1278 17.8699 4.64195 13.9993 1.74551C10.1286 -1.15092 4.6428 -0.361157 1.74637 3.50949C-1.15007 7.38013 -0.360302 12.866 3.51034 15.7624C6.61957 18.0891 10.89 18.0891 13.9993 15.7624L17.8719 19.635C18.3585 20.1216 19.1476 20.1216 19.6342 19.635C20.1208 19.1483 20.1208 18.3593 19.6342 17.8727L19.6342 17.871ZM8.78708 15.015C5.34704 15.015 2.55836 12.2263 2.55836 8.78623C2.55836 5.34618 5.34704 2.55751 8.78708 2.55751C12.2271 2.55751 15.0158 5.34618 15.0158 8.78623C15.0121 12.2247 12.2256 15.0113 8.78708 15.015Z" fill="#ADB8CC"/>
</g>
<defs>
<clipPath id="clip0_1_1384">
<rect width="20" height="20" fill="white"/>
</clipPath>
</defs>
</svg>
