<svg width="20" height="20" viewBox="0 0 20 20" fill="none" xmlns="http://www.w3.org/2000/svg">
<g clip-path="url(#clip0_1_2874)">
<path d="M15.1937 19.5075C14.9301 19.5076 14.6704 19.4433 14.4374 19.32L10.109 17.045C10.0754 17.027 10.038 17.0176 9.99994 17.0176C9.9619 17.0176 9.92445 17.027 9.89091 17.045L5.56313 19.32C5.29494 19.4611 4.99261 19.5243 4.69034 19.5026C4.38807 19.4808 4.09792 19.3748 3.85274 19.1967C3.60756 19.0186 3.41712 18.7754 3.30298 18.4946C3.18884 18.2139 3.15555 17.9068 3.20688 17.6081L4.03327 12.7894C4.03962 12.7516 4.03661 12.7129 4.0245 12.6766C4.0124 12.6403 3.99156 12.6075 3.96383 12.5811L0.465216 9.16648C0.247996 8.95485 0.0943893 8.68661 0.0218021 8.39216C-0.0507852 8.0977 -0.0394517 7.78881 0.0545183 7.50046C0.148488 7.21212 0.321338 6.95586 0.553484 6.76071C0.785629 6.56557 1.06779 6.43935 1.36799 6.39634L6.20341 5.69426C6.24104 5.68879 6.27676 5.67423 6.3075 5.65184C6.33823 5.62946 6.36305 5.59992 6.3798 5.56579L8.5416 1.18037C8.6755 0.908511 8.88285 0.679572 9.14016 0.519479C9.39747 0.359387 9.69446 0.274536 9.99751 0.274536C10.3006 0.274536 10.5975 0.359387 10.8549 0.519479C11.1122 0.679572 11.3195 0.908511 11.4534 1.18037L13.6166 5.5644C13.6335 5.59842 13.6584 5.62787 13.6891 5.65024C13.7198 5.6726 13.7554 5.68723 13.793 5.69287L18.6326 6.39565C18.9326 6.4389 19.2146 6.56526 19.4466 6.76043C19.6786 6.9556 19.8513 7.2118 19.9452 7.50004C20.0392 7.78828 20.0506 8.09705 19.9781 8.39143C19.9057 8.68581 19.7523 8.95405 19.5354 9.16579L16.0333 12.5783C16.0056 12.6048 15.9849 12.6376 15.9728 12.6739C15.9607 12.7102 15.9576 12.7489 15.9638 12.7866L16.7902 17.6054C16.83 17.8382 16.8185 18.0769 16.7566 18.3049C16.6948 18.5328 16.584 18.7445 16.4319 18.9253C16.2799 19.1061 16.0903 19.2516 15.8764 19.3516C15.6624 19.4517 15.4292 19.5039 15.193 19.5047L15.1937 19.5075ZM9.99994 15.6283C10.2633 15.6282 10.5227 15.6926 10.7555 15.8158L15.0833 18.0901C15.1216 18.112 15.1655 18.122 15.2095 18.1189C15.2535 18.1158 15.2956 18.0998 15.3305 18.0727C15.3669 18.0478 15.3951 18.0127 15.4118 17.9718C15.4285 17.931 15.4328 17.8862 15.4242 17.8429L14.5972 13.0234C14.553 12.764 14.5724 12.4978 14.6536 12.2476C14.7349 11.9973 14.8757 11.7705 15.0638 11.5866L18.5659 8.17343C18.5972 8.14281 18.6193 8.10406 18.6297 8.06156C18.6401 8.01906 18.6384 7.97449 18.6248 7.93289C18.6112 7.89129 18.5863 7.85432 18.5528 7.82614C18.5194 7.79796 18.4787 7.7797 18.4354 7.77343L13.5965 7.06996C13.3359 7.03223 13.0885 6.93165 12.8756 6.77691C12.6626 6.62216 12.4906 6.41789 12.3742 6.18176L10.2083 1.79704C10.1889 1.7578 10.1589 1.72477 10.1217 1.70167C10.0845 1.67857 10.0416 1.66633 9.99785 1.66633C9.95408 1.66633 9.91118 1.67857 9.874 1.70167C9.83682 1.72477 9.80684 1.7578 9.78744 1.79704L7.62563 6.18037C7.50924 6.41659 7.33706 6.62091 7.12399 6.77567C6.91091 6.93042 6.66336 7.03095 6.40272 7.06857L1.56452 7.77343C1.52113 7.77957 1.48033 7.79777 1.44677 7.82596C1.41321 7.85415 1.38824 7.8912 1.37471 7.93288C1.36117 7.97457 1.35962 8.01922 1.37022 8.06175C1.38082 8.10427 1.40315 8.14297 1.43466 8.17343L4.93605 11.5866C5.12421 11.7705 5.26496 11.9973 5.34624 12.2476C5.42752 12.4978 5.4469 12.764 5.40272 13.0234L4.57563 17.8429C4.56813 17.8862 4.57293 17.9307 4.58949 17.9714C4.60605 18.0121 4.63371 18.0474 4.66931 18.0731C4.70491 18.0989 4.74703 18.1141 4.79087 18.1171C4.83471 18.1201 4.87852 18.1108 4.9173 18.0901L9.24438 15.8151C9.47733 15.6924 9.73666 15.6283 9.99994 15.6283Z" fill="#ADB8CC"/>
</g>
<defs>
<clipPath id="clip0_1_2874">
<rect width="20" height="20" fill="white"/>
</clipPath>
</defs>
</svg>
