<svg width="20" height="20" viewBox="0 0 20 20" fill="none" xmlns="http://www.w3.org/2000/svg">
<g clip-path="url(#clip0_2001_697)">
<path d="M10 20C15.5228 20 20 15.5228 20 10C20 4.47715 15.5228 0 10 0C4.47715 0 0 4.47715 0 10C0 15.5228 4.47715 20 10 20Z" fill="#27A5E7"/>
<path fill-rule="evenodd" clip-rule="evenodd" d="M7.85352 14.1934C7.50391 14.1934 7.56445 14.0645 7.44336 13.7422L6.41797 10.463L14.3203 5.91022L14.4336 6.12506L7.85352 14.1934Z" fill="#C8DAEA"/>
<path fill-rule="evenodd" clip-rule="evenodd" d="M7.85352 14.1934C8.12305 14.1934 8.24023 14.0743 8.39258 13.9317L9.82813 12.5743L8.03711 11.5255L7.85352 14.1934Z" fill="#A9C9DD"/>
<path fill-rule="evenodd" clip-rule="evenodd" d="M8.03514 11.5254L12.3789 14.6426C12.875 14.9082 13.2324 14.7715 13.3555 14.1953L15.123 6.10548C15.3027 5.40236 14.8457 5.08204 14.3711 5.29103L3.99022 9.17775C3.28123 9.45509 3.28514 9.83595 3.86131 10.0078L6.52342 10.8145L13.789 6.34767C14.0801 6.17579 14.3867 6.06056 14.168 6.24806L8.03514 11.5254Z" fill="url(#paint0_linear_2001_697)"/>
</g>
<defs>
<linearGradient id="paint0_linear_2001_697" x1="3.44269" y1="10.0004" x2="15.163" y2="10.0004" gradientUnits="userSpaceOnUse">
<stop stop-color="#EFF7FC"/>
<stop offset="1" stop-color="white"/>
</linearGradient>
<clipPath id="clip0_2001_697">
<rect width="20" height="20" fill="white"/>
</clipPath>
</defs>
</svg>
