<svg width="4" height="19" viewBox="0 0 4 19" fill="none" xmlns="http://www.w3.org/2000/svg">
<path fill-rule="evenodd" clip-rule="evenodd" d="M3.77275 2.52273C3.77275 3.50178 2.97907 4.29545 2.00002 4.29545C1.02097 4.29545 0.227295 3.50178 0.227295 2.52273C0.227295 1.54368 1.02097 0.75 2.00002 0.75C2.97907 0.75 3.77275 1.54368 3.77275 2.52273ZM3.77275 9.50002C3.77275 10.4791 2.97907 11.2727 2.00002 11.2727C1.02097 11.2727 0.227295 10.4791 0.227295 9.50002C0.227295 8.52097 1.02097 7.72729 2.00002 7.72729C2.97907 7.72729 3.77275 8.52097 3.77275 9.50002ZM2.00002 18.25C2.97907 18.25 3.77275 17.4564 3.77275 16.4773C3.77275 15.4983 2.97907 14.7046 2.00002 14.7046C1.02097 14.7046 0.227295 15.4983 0.227295 16.4773C0.227295 17.4564 1.02097 18.25 2.00002 18.25Z" fill="#ADB8CC"/>
</svg>
