<svg width="22" height="22" viewBox="0 0 22 22" fill="none" xmlns="http://www.w3.org/2000/svg">
<path d="M11 12C14.3148 12 17 9.31479 17 6H15C15 8.21022 13.2102 10 11 10V12ZM17 6C17 2.68522 14.3148 0 11 0V2C13.2102 2 15 3.78978 15 6H17ZM11 0C7.68521 0 5 2.68522 5 6H7C7 3.78978 8.78978 2 11 2V0ZM5 6C5 9.31479 7.68521 12 11 12V10C8.78978 10 7 8.21022 7 6H5ZM11 12.5C9.20624 12.5 6.57983 12.9422 4.37657 13.8248C3.27413 14.2665 2.21475 14.843 1.41494 15.5812C0.608333 16.3256 0 17.3015 0 18.5H2C2 18.036 2.22448 17.5556 2.77139 17.0509C3.3251 16.5398 4.13993 16.0741 5.12031 15.6814C7.08267 14.8953 9.45626 14.5 11 14.5V12.5ZM0 18.5V19.75H2V18.5H0ZM0 19.75C0 20.9898 1.01022 22 2.25 22V20C2.11478 20 2 19.8852 2 19.75H0ZM2.25 22H19.75V20H2.25V22ZM19.75 22C20.9898 22 22 20.9898 22 19.75H20C20 19.8852 19.8852 20 19.75 20V22ZM22 19.75V18.5H20V19.75H22ZM22 18.5C22 17.3015 21.3917 16.3256 20.5851 15.5812C19.7853 14.843 18.7259 14.2665 17.6234 13.8248C15.4202 12.9422 12.7938 12.5 11 12.5V14.5C12.5437 14.5 14.9173 14.8953 16.8797 15.6814C17.8601 16.0741 18.6749 16.5398 19.2286 17.0509C19.7755 17.5556 20 18.036 20 18.5H22Z" fill="#C3CAD9"/>
</svg>
