<svg width="20" height="20" viewBox="0 0 20 20" fill="none" xmlns="http://www.w3.org/2000/svg">
<g clip-path="url(#clip0_26_3428)">
<path d="M18.3334 0H15C14.779 0 14.5671 0.0877974 14.4108 0.244078C14.2545 0.400358 14.1667 0.61232 14.1667 0.833333C14.1667 1.05435 14.2545 1.26631 14.4108 1.42259C14.5671 1.57887 14.779 1.66667 15 1.66667H17.155L15.155 3.66667C14.243 2.9779 13.1473 2.57478 12.0063 2.50819C10.8653 2.4416 9.7302 2.71452 8.74419 3.2925C8.00105 2.86308 7.17218 2.60322 6.31689 2.53151C5.4616 2.4598 4.60103 2.57801 3.79675 2.87768C2.99248 3.17736 2.26437 3.65109 1.66454 4.26498C1.06471 4.87887 0.607969 5.61775 0.327004 6.42875C0.0460395 7.23975 -0.0522059 8.10283 0.039297 8.95623C0.1308 9.80963 0.409789 10.6323 0.856304 11.3653C1.30282 12.0983 1.90582 12.7235 2.62217 13.1963C3.33852 13.669 4.1505 13.9776 5.00003 14.1V15.8333H3.33336C3.11235 15.8333 2.90039 15.9211 2.74411 16.0774C2.58783 16.2337 2.50003 16.4457 2.50003 16.6667C2.50003 16.8877 2.58783 17.0996 2.74411 17.2559C2.90039 17.4122 3.11235 17.5 3.33336 17.5H5.00003V19.1667C5.00003 19.3877 5.08783 19.5996 5.24411 19.7559C5.40039 19.9122 5.61235 20 5.83336 20C6.05438 20 6.26634 19.9122 6.42262 19.7559C6.5789 19.5996 6.66669 19.3877 6.66669 19.1667V17.5H8.33336C8.55438 17.5 8.76634 17.4122 8.92262 17.2559C9.0789 17.0996 9.16669 16.8877 9.16669 16.6667C9.16669 16.4457 9.0789 16.2337 8.92262 16.0774C8.76634 15.9211 8.55438 15.8333 8.33336 15.8333H6.66669V14.1058C7.39924 13.9967 8.10398 13.7477 8.74253 13.3725C9.90353 14.0516 11.2639 14.3077 12.5923 14.0973C13.9208 13.8869 15.1354 13.2231 16.0298 12.2185C16.9242 11.2139 17.4432 9.93069 17.4985 8.58681C17.5538 7.24294 17.1421 5.92136 16.3334 4.84667L18.3334 2.84667V5C18.3334 5.22101 18.4212 5.43297 18.5774 5.58926C18.7337 5.74554 18.9457 5.83333 19.1667 5.83333C19.3877 5.83333 19.5997 5.74554 19.756 5.58926C19.9122 5.43297 20 5.22101 20 5V1.66667C20 1.22464 19.8244 0.800716 19.5119 0.488155C19.1993 0.175595 18.7754 0 18.3334 0ZM1.66669 8.33333C1.66275 7.65654 1.82468 6.98909 2.13834 6.38935C2.452 5.78962 2.90783 5.27587 3.46595 4.89304C4.02408 4.51021 4.66751 4.26997 5.33996 4.19331C6.01241 4.11666 6.69339 4.20594 7.32336 4.45333C6.36415 5.51802 5.83331 6.90028 5.83331 8.33333C5.83331 9.76639 6.36415 11.1486 7.32336 12.2133C6.69339 12.4607 6.01241 12.55 5.33996 12.4734C4.66751 12.3967 4.02408 12.1565 3.46595 11.7736C2.90783 11.3908 2.452 10.877 2.13834 10.2773C1.82468 9.67758 1.66275 9.01013 1.66669 8.33333ZM11.6667 12.5C10.8426 12.5 10.037 12.2556 9.35182 11.7978C8.66661 11.34 8.13256 10.6892 7.8172 9.92785C7.50183 9.16649 7.41932 8.32871 7.58009 7.52046C7.74086 6.7122 8.1377 5.96977 8.72042 5.38705C9.30314 4.80434 10.0456 4.4075 10.8538 4.24673C11.6621 4.08596 12.4999 4.16847 13.2612 4.48384C14.0226 4.7992 14.6733 5.33325 15.1312 6.01846C15.589 6.70366 15.8334 7.50924 15.8334 8.33333C15.832 9.438 15.3926 10.497 14.6115 11.2781C13.8304 12.0593 12.7714 12.4987 11.6667 12.5Z" fill="#ADB8CC"/>
</g>
<defs>
<clipPath id="clip0_26_3428">
<rect width="20" height="20" fill="white"/>
</clipPath>
</defs>
</svg>
